<svg width="210" height="80" viewBox="0 0 210 80" fill="none" xmlns="http://www.w3.org/2000/svg">
<g id="logo">
<g id="logo_2">
<path fill-rule="evenodd" clip-rule="evenodd" d="M28.7136 23.0768L36.5639 23.075V30.9278L28.7136 30.9259V23.0768Z" fill="#141482"/>
<path fill-rule="evenodd" clip-rule="evenodd" d="M17.0208 23.0723C11.7832 23.0723 6.54506 23.0717 1.30748 23.0717C2.75778 27.5068 5.73233 30.6432 12.0614 30.922L17.0208 30.9226V23.0723Z" fill="#141482"/>
<path fill-rule="evenodd" clip-rule="evenodd" d="M28.6281 42.2567C38.2548 42.2512 47.8809 42.247 57.5069 42.2421C57.0978 47.4652 54.036 50.2506 47.773 50.0961L28.6294 50.1058L28.6281 42.2567Z" fill="#141482"/>
<path fill-rule="evenodd" clip-rule="evenodd" d="M49.5742 61.3441V69.1938L57.4263 69.1962L57.4251 61.3435L49.5742 61.3441Z" fill="#141482"/>
<path fill-rule="evenodd" clip-rule="evenodd" d="M69.0153 61.3441V69.1938C74.2189 69.195 79.4219 69.1956 84.6256 69.1962C82.865 64.7907 79.3438 62.0816 73.9232 61.3435L69.0153 61.3441Z" fill="#141482"/>
<path fill-rule="evenodd" clip-rule="evenodd" d="M45.6886 40.3517L18.9171 40.3287L18.9159 11.8184H26.6898L26.7668 11.8953V32.502L45.6886 32.5026V40.3517Z" fill="#141482"/>
<path fill-rule="evenodd" clip-rule="evenodd" d="M67.0611 78.9293L67.0314 51.9033L39.1436 51.9027V59.7511L59.212 59.7548L59.2102 78.9293H67.0611Z" fill="#141482"/>
<path fill-rule="evenodd" clip-rule="evenodd" d="M164.752 50.0414V29.7917H186.758C188.742 29.8711 190.95 31.3287 190.99 33.4414C191.039 35.9565 189.959 36.7438 188.624 37.7287L170.219 47.0038V50.0414H164.752ZM170.219 34.5668H183.473C184.211 34.5668 184.235 35.1874 183.667 35.5044L170.219 41.8002V34.5668Z" fill="#141482"/>
<path fill-rule="evenodd" clip-rule="evenodd" d="M200.733 49.9931L200.73 39.5859C200.73 39.5683 195.067 44.2095 192.249 46.4635C189.396 48.8483 187.719 49.921 184.738 49.9931H200.733Z" fill="#141482"/>
<path fill-rule="evenodd" clip-rule="evenodd" d="M176.375 50.0375L200.919 30.2012C203.295 28.2812 207.974 29.2345 207.974 33.2157V50.0278L203.187 50.0315V35.4236C203.187 35.0315 202.803 34.786 202.451 35.0721C197.241 39.1763 192.031 43.2799 186.822 47.3842C183.573 49.606 180.05 50.2612 176.375 50.0375Z" fill="#141482"/>
<path fill-rule="evenodd" clip-rule="evenodd" d="M140.099 29.8453V46.421C140.099 48.5834 142.356 50.0428 144.385 50.0428H158.658C160.959 50.0428 162.875 48.4107 162.875 46.1937V27.6107H162.789C160.334 28.1325 158.458 29.475 157.565 32.2125V43.9392C157.565 44.8368 156.775 45.2459 156.049 45.2459H146.698C145.984 45.2459 145.271 44.8234 145.271 44.0531V29.8453C145.271 29.8453 140.099 29.9022 140.099 29.8453Z" fill="#141482"/>
<path fill-rule="evenodd" clip-rule="evenodd" d="M114.352 50.0401H135.873C138.906 50.0401 140.165 46.2868 136.73 43.9965L123.254 34.4856H133.31C136.265 33.7219 137.698 32.0753 138.249 29.9171V29.8225H117.29C114.244 29.8225 112.115 33.1704 115.99 35.8086L129.728 45.2632H114.352V50.0401Z" fill="#141482"/>
<path fill-rule="evenodd" clip-rule="evenodd" d="M112.635 29.8353H92.1899C90.5172 29.8353 88.9129 30.1777 88.8457 32.1747V47.3553C88.9796 49.5238 89.9154 50.0371 92.4572 50.0371H112.635V45.1905H95.7341C94.7711 45.1905 94.2475 44.9147 94.2057 43.9596V42.9644C94.2057 42.2062 94.7396 41.7147 95.5887 41.7147H105.518C108.106 41.6383 109.013 40.0602 109.312 37.9383H95.7341C94.5778 37.9383 94.2238 37.5917 94.2238 36.6196V35.7317C94.2238 35.2317 94.6341 34.6087 95.6244 34.6087H107.535C110.603 33.8626 112.077 32.1899 112.635 29.9862V29.8353Z" fill="#141482"/>
<path fill-rule="evenodd" clip-rule="evenodd" d="M87.5443 49.8276H74.1418C72.257 49.7924 70.3891 49.5639 69.0903 48.3003L62.9443 42.8391C61.8497 41.8288 61.2521 40.5251 62.0758 38.7051L65.9364 31.0451C66.6146 30.1967 67.8964 29.8009 68.6497 29.8009H87.5267C86.9752 31.9979 85.5182 33.8561 82.4855 34.6118H71.023C70.7285 34.5645 70.3788 34.6597 70.1479 35.0142C69.4885 35.9797 68.4642 38.2918 67.8552 39.3997C67.5255 39.9773 67.7461 40.5094 67.9776 40.6961L71.9733 44.5403C73.0285 45.1773 73.5382 45.1215 75.1976 45.2348H87.5443V49.8276Z" fill="#141482"/>
</g>
</g>
</svg>
